PathFileType	4	(X/Y/Z)	P:\Projects\LMB_grand_challenge_database\project_only\opensim\experimental_data\SixthCompetition/DM_ngait_og7_new.trc
DataRate	CameraRate	NumFrames	NumMarkers	Units	OrigDataRate	OrigDataStartFrame	OrigNumFrames
120	120	7	68	mm	120	39	314
Frame#	Time	Sternum			Neck			R_Shoulder			L_Shoulder			Xiphoid			Thoracic			R_Asis			L_Asis			R_Psis			L_Psis			Lumbar			R_Elbow			R_ElbowMedial			R_ShoulderAnterior			R_ShoulderPosterior			R_Wrist			R_Radius			R_Ulna			L_Elbow			L_ElbowMedial			L_ShoulderAnterior			L_ShoulderPosterior			L_Wrist			L_Ulna			L_Radius			L_Thigh_Superior			L_Thigh_Inferior			L_Thigh_Lateral			L_Knee_Lateral			L_Knee_Medial			L_Patella			L_Shank_Superior			L_Shank_Inferior			L_Shank_Lateral			L_Ankle_Lateral			L_Ankle_Medial			R_Thigh_Superior			R_Thigh_Inferior			R_Thigh_Lateral			R_Knee_Lateral			R_Knee_Medial			R_Patella			R_Shank_Superior			R_Shank_Inferior			R_Shank_Lateral			R_Ankle_Lateral			RankleMedial			R_Heel			R_Toe			R_Midfoot_Medial			R_Midfoot_Lateral			R_Hindfoot			R_Midfoot_Superior			R_ToeMedial			R_ToeLateral			L_Heel			L_Toe			L_Midfoot_Medial			L_Midfoot_Lateral			L_Hindfoot			L_Midfoot_Superior			L_ToeMedial			L_ToeLateral			Oglobal			Sacral			Xglobal			Yglobal			Zglobal			
		X1	Y1	Z1	X2	Y2	Z2	X3	Y3	Z3	X4	Y4	Z4	X5	Y5	Z5	X6	Y6	Z6	X7	Y7	Z7	X8	Y8	Z8	X9	Y9	Z9	X10	Y10	Z10	X11	Y11	Z11	X12	Y12	Z12	X13	Y13	Z13	X14	Y14	Z14	X15	Y15	Z15	X16	Y16	Z16	X17	Y17	Z17	X18	Y18	Z18	X19	Y19	Z19	X20	Y20	Z20	X21	Y21	Z21	X22	Y22	Z22	X23	Y23	Z23	X24	Y24	Z24	X25	Y25	Z25	X26	Y26	Z26	X27	Y27	Z27	X28	Y28	Z28	X29	Y29	Z29	X30	Y30	Z30	X31	Y31	Z31	X32	Y32	Z32	X33	Y33	Z33	X34	Y34	Z34	X35	Y35	Z35	X36	Y36	Z36	X37	Y37	Z37	X38	Y38	Z38	X39	Y39	Z39	X40	Y40	Z40	X41	Y41	Z41	X42	Y42	Z42	X43	Y43	Z43	X44	Y44	Z44	X45	Y45	Z45	X46	Y46	Z46	X47	Y47	Z47	X48	Y48	Z48	X49	Y49	Z49	X50	Y50	Z50	X51	Y51	Z51	X52	Y52	Z52	X53	Y53	Z53	X54	Y54	Z54	X55	Y55	Z55	X56	Y56	Z56	X57	Y57	Z57	X58	Y58	Z58	X59	Y59	Z59	X60	Y60	Z60	X61	Y61	Z61	X62	Y62	Z62	X63	Y63	Z63	X64	Y64	Z64	X65	Y65	Z65	X66	Y66	Z66	X67	Y67	Z67	X68	Y68	Z68	

40	1.083333	-719.734	1444.5	122.095	-553.605	1369.4	128.825	-632.058	1394.42	299.178	-627.626	1403.05	-48.5472	-536.308	1199.07	133.06	-806.775	1260.85	113.514	-643.111	963.088	263.882	-603.716	974.712	-9.129379999999999	-827.563	1009.6	130.54	-817.936	1007.5	54.1222	-822.211	1058.21	96.56619999999999	-718.338	1087.76	393.546	-0	0	0	-0	0	0	-0	0	0	-659.624	812.6130000000001	396.609	-643.075	823.102	357.378	-707.76	816.919	392.26	-530.105	1083.35	-136.979	-0	0	0	-0	0	0	-0	0	0	-348.16	891.034	-84.68989999999999	-386.126	877.901	-110.783	-370.796	903.082	-43.2276	-692.083	799.793	-42.8535	-723.5069999999999	581.543	7.37114	-658.982	662.875	32.8146	-0	0	0	-0	0	0	-723.851	484.952	70.92910000000001	-802.367	438	-2.90066	-911.601	188.068	-5.63465	-832.234	295.348	68.4166	-0	0	0	-0	0	0	-710.338	782.883	290.584	-605.188	590.75	267.998	-545.856	678.516	231.748	-0	0	0	-0	0	0	-486.224	538.979	219.476	-559.087	394.118	284.919	-456.581	209.196	284.537	-445.773	352.429	220.879	-0	0	0	-0	0	0	-458.484	58.6085	225.601	-185.809	172.038	270.609	-239.945	126.644	204.913	-261.212	107.061	318.565	-359.136	61.4617	290.578	-335.507	176.081	255.527	-206.338	151.143	221.524	-220.99	137.04	312.08	-1021.36	76.80800000000001	45.3539	-723.024	48.8973	41.5762	-806.2	30.9083	97.9644	-816.24	29.954	-16.0725	-922.501	32.5968	-10.3836	-853.596	119.901	42.2528	-760.7329999999999	32.0604	85.8283	-760.85	33.4649	-9.46658	-0	0	0	-822.75	1008.55	92.3309	-200	0	0	-0	0	200	-0	200	0	
41	1.091667	-711.348	1442.97	123.375	-545.2809999999999	1367.97	130.557	-624.143	1392.62	300.917	-618.223	1400.71	-47.1755	-527.564	1197.73	134.412	-798.252	1259.24	114.828	-634.269	961.482	265.195	-594.871	973.701	-7.96578	-818.804	1007.83	131.913	-809.154	1005.77	55.4366	-813.587	1056.47	97.959	-709.865	1085.73	395.197	-0	0	0	-0	0	0	-0	0	0	-651.939	810.5	398.007	-635.604	820.925	358.497	-699.891	814.761	393.753	-518.347	1081.3	-133.803	-0	0	0	-0	0	0	-0	0	0	-334.612	891.425	-80.0757	-372.194	877.509	-106.266	-357.135	903.42	-38.9189	-684.153	798.829	-41.9127	-718.061	580.763	7.86088	-653.3150000000001	661.4160000000001	33.3409	-0	0	0	-0	0	0	-719.2430000000001	484.005	71.0869	-798.293	438.046	-2.59695	-910.109	189.167	-5.91118	-829.516	295.327	68.28660000000001	-0	0	0	-0	0	0	-700.499	781.963	291.557	-594.319	589.901	268.357	-535.676	677.9450000000001	231.331	-0	0	0	-0	0	0	-475.779	538.879	218.614	-547.356	393.221	284.866	-444.234	208.666	283.702	-434.663	352.262	219.907	-0	0	0	-0	0	0	-445.57	57.8179	224.325	-173.798	173.84	268.054	-227.787	127.943	202.663	-248.258	107.836	316.37	-345.81	61.384	288.849	-323.529	176.344	253.934	-194.71	152.813	219.144	-208.246	138.376	309.51	-1020.83	78.2886	45.1517	-722.875	48.6023	41.5429	-806.053	31.036	98.1112	-816.0170000000001	29.6918	-15.9284	-922.371	33.1228	-10.3149	-852.629	120.177	42.0008	-760.506	31.9859	85.6383	-760.788	33.308	-9.50516	-0	0	0	-813.979	1006.8	93.675	-200	0	0	-0	0	200	-0	200	0	
42	1.1	-702.804	1441.44	124.642	-536.6950000000001	1366.62	132.356	-615.655	1390.5	302.481	-608.5549999999999	1398.82	-45.5493	-518.893	1196.36	135.867	-789.6180000000001	1257.73	116.016	-625.4349999999999	960.2910000000001	266.785	-585.7089999999999	972.249	-6.58599	-809.897	1006.03	133.189	-800.05	1003.95	56.8128	-804.744	1054.68	99.09569999999999	-701.202	1083.72	396.913	-0	0	0	-0	0	0	-0	0	0	-643.789	808.349	399.198	-627.826	818.952	359.534	-691.778	812.7670000000001	395.627	-506.382	1079.93	-131.5	-0	0	0	-0	0	0	-0	0	0	-321.195	891.737	-75.6194	-358.603	877.076	-101.535	-343.909	903.604	-34.3536	-676.627	798.718	-41.5223	-712.158	580.0359999999999	8.42733	-646.763	660.102	34.668	-0	0	0	-0	0	0	-714.537	482.775	71.3366	-794.0940000000001	437.845	-2.20089	-908.657	190.196	-5.84915	-826.2619999999999	294.886	67.02670000000001	-0	0	0	-0	0	0	-689.619	781.022	292.675	-582.788	589.287	268.409	-524.74	677.4400000000001	231.025	-0	0	0	-0	0	0	-464.887	538.582	218.092	-535.748	392.749	284.665	-433.003	207.808	282.274	-423.297	351.475	218.834	-0	0	0	-0	0	0	-435.178	56.9041	222.5	-163.226	173.013	265.904	-217.482	127.116	200.26	-237.536	106.661	313.978	-334.982	60.3356	286.781	-312.995	175.394	252.037	-184.026	152.075	216.892	-197.454	137.42	307.372	-1020.14	79.8546	45.2797	-722.627	48.598	41.362	-805.648	30.977	97.9372	-815.792	29.6653	-16.0869	-922.02	33.9323	-10.3198	-851.556	120.467	41.8597	-760.276	31.8218	85.5626	-760.6319999999999	33.18	-9.50196	-0	0	0	-804.974	1004.99	95.0008	-200	0	0	-0	0	200	-0	200	0	
43	1.108333	-694.313	1439.97	126.021	-528.1950000000001	1365.33	134.183	-607.514	1388.52	304.233	-599.273	1396.73	-43.992	-510.075	1194.99	137.458	-780.787	1256.2	117.204	-616.352	959.079	268.225	-576.465	970.8440000000001	-5.12605	-800.83	1004.26	134.462	-790.867	1002.19	58.2508	-795.741	1052.92	100.322	-692.514	1081.7	398.646	-0	0	0	-0	0	0	-0	0	0	-635.548	806.088	400.515	-619.783	816.775	360.47	-683.6	810.581	397.155	-494.871	1077.97	-128.354	-0	0	0	-0	0	0	-0	0	0	-308.609	891.801	-71.226	-345.635	876.427	-97.0363	-331.328	903.621	-29.9915	-668.659	797.941	-40.8201	-705.942	579.126	9.251939999999999	-639.95	658.853	35.5795	-0	0	0	-0	0	0	-709.793	481.556	71.7445	-789.413	437.699	-1.56821	-906.835	191.258	-5.80382	-823.357	295.13	67.3827	-0	0	0	-0	0	0	-678.329	780.2329999999999	293.956	-570.747	588.489	268.3	-513.404	677.019	230.627	-0	0	0	-0	0	0	-453.472	538.381	217.438	-523.784	391.995	284.063	-423.223	206.399	280.714	-412.857	350.259	217.512	-0	0	0	-0	0	0	-426.581	55.6983	220.084	-153.98	169.707	264.11	-208.41	124.521	198.151	-228.649	103.847	311.797	-326.579	58.2704	284.29	-303.609	173.287	250.042	-174.739	149.108	214.979	-188.309	134.18	305.193	-1019.23	81.6579	45.0388	-722.915	47.9032	41.2967	-805.21	31.3502	98.2542	-815.205	29.5366	-15.7762	-921.492	34.6295	-10.2017	-850.294	120.922	41.6545	-760.109	31.6655	85.6545	-760.547	33.0209	-9.482049999999999	-0	0	0	-795.849	1003.23	96.3562	-200	0	0	-0	0	200	-0	200	0	
44	1.116667	-685.61	1438.53	127.357	-519.688	1363.94	136.092	-599.348	1386.64	306.112	-589.96	1394.96	-42.3767	-501.095	1193.63	139.187	-771.9299999999999	1254.51	118.429	-606.693	957.647	269.464	-567.104	969.2	-3.65098	-791.422	1002.48	135.928	-781.526	1000.42	59.7239	-786.355	1051.14	101.779	-683.5170000000001	1079.56	400.342	-0	0	0	-0	0	0	-0	0	0	-627.164	803.813	401.886	-611.826	814.428	361.673	-675.006	808.54	398.9	-484.043	1076.1	-124.861	-0	0	0	-0	0	0	-0	0	0	-296.275	891.774	-66.81610000000001	-333.087	875.876	-92.401	-319.083	903.3	-25.6702	-660.441	796.937	-39.6811	-699.821	578.477	9.935700000000001	-632.998	657.728	36.5996	-0	0	0	-0	0	0	-704.11	480.511	72.63030000000001	-784.346	437.518	-1.14301	-904.458	192.246	-5.83667	-820.548	295.186	68.9023	-0	0	0	-0	0	0	-666.191	778.907	294.904	-558.069	587.836	267.802	-501.809	676.699	230.147	-0	0	0	-0	0	0	-441.782	538.098	216.838	-512.967	391.389	283.483	-414.493	204.556	278.66	-402.434	348.646	215.864	-0	0	0	-0	0	0	-419.927	54.1571	217.468	-145.829	164.46	262.292	-200.85	120.266	196.234	-221.756	100.013	309.836	-320.213	55.5374	282.013	-295.616	170.29	247.709	-167.033	144.355	213.199	-181.217	129.689	303.55	-1018.4	83.80589999999999	45.0023	-722.694	47.7112	41.2627	-804.984	32.09	99.30119999999999	-814.71	29.1623	-14.7292	-921.4349999999999	35.2404	-9.437150000000001	-848.995	121.492	41.6402	-759.976	31.5358	85.7152	-759.9299999999999	32.3872	-9.495200000000001	-0	0	0	-786.474	1001.45	97.8262	-200	0	0	-0	0	200	-0	200	0	
45	1.125	-676.963	1436.95	128.956	-511.026	1362.64	137.955	-591.295	1384.81	308.08	-580.774	1393.23	-40.3512	-492.252	1192.25	140.983	-762.97	1252.89	119.803	-596.797	956.256	270.5	-557.734	967.966	-2.23725	-781.939	1000.77	137.442	-772.169	998.792	61.2902	-776.9400000000001	1049.46	103.358	-674.162	1077.28	402.054	-0	0	0	-0	0	0	-0	0	0	-618.599	801.612	403.168	-603.65	812.127	362.996	-666.439	806.447	400.706	-473.173	1074.44	-121.472	-0	0	0	-0	0	0	-0	0	0	-284.648	891.571	-62.5939	-321.166	874.898	-87.6027	-307.155	903.319	-21.5164	-651.823	795.741	-38.5466	-692.689	577.179	11.2436	-625.646	656.412	37.615	-0	0	0	-0	0	0	-697.724	479.016	73.26049999999999	-778.946	437.168	-0.389286	-902.271	193.535	-5.698	-817.681	295.665	69.5556	-0	0	0	-0	0	0	-653.777	777.574	295.892	-545.764	587.138	267.713	-489.965	676.217	229.906	-0	0	0	-0	0	0	-430.12	537.8680000000001	216.192	-502.499	390.571	282.685	-406.96	202.126	276.53	-392.997	346.206	214.163	-0	0	0	-0	0	0	-414.782	52.0893	214.544	-139.378	158.315	260.777	-194.434	114.388	195.003	-216.732	95.1302	308.512	-315.853	52.4111	279.769	-288.744	166.352	245.329	-160.488	138.441	211.424	-175.848	124.423	301.746	-1017.51	86.1305	45.1161	-722.158	47.2234	41.9381	-804.898	33.6586	101.784	-814.024	28.2488	-12.2055	-917.9829999999999	34.2764	-8.96204	-847.782	122.136	41.8745	-759.85	31.4012	85.77460000000001	-759.65	32.1545	-9.485290000000001	-0	0	0	-777.054	999.783	99.3659	-200	0	0	-0	0	200	-0	200	0	
46	1.133333	-668.347	1435.41	130.673	-502.302	1361.37	140.02	-582.965	1382.93	310.135	-571.547	1391.92	-38.4317	-483.03	1191.09	142.834	-753.825	1251.12	121.249	-586.451	955.058	271.512	-548.138	966.179	-0.7295469999999999	-772.114	999.028	139.006	-762.523	997.125	62.9241	-767.114	1047.73	104.906	-664.708	1075.13	403.688	-0	0	0	-0	0	0	-0	0	0	-609.699	799.3200000000001	404.4	-595.006	809.827	364.198	-657.602	804.182	402.353	-462.655	1073.24	-118.265	-0	0	0	-0	0	0	-0	0	0	-273.386	891.293	-58.4891	-309.902	873.973	-83.2787	-295.569	902.982	-17.2421	-643.121	794.389	-37.3045	-685.896	576.6609999999999	11.7902	-618.1180000000001	654.776	38.2469	-0	0	0	-0	0	0	-691.771	477.367	73.70529999999999	-773.4400000000001	436.949	0.277569	-899.987	194.899	-5.40136	-813.735	295.372	70.04810000000001	-0	0	0	-0	0	0	-641.3150000000001	776.4349999999999	296.839	-533.657	586.057	267.635	-477.864	675.777	229.779	-0	0	0	-0	0	0	-418.386	537.217	215.704	-492.408	389.361	281.576	-400.701	199.347	274.213	-383.95	343.383	212.536	-0	0	0	-0	0	0	-411.784	51.7461	212.505	-133.953	150.33	257.748	-189.754	107.429	192.057	-212.492	90.2527	305.813	-312.879	49.5417	277.881	-282.961	162.306	241.668	-155.518	130.072	208.995	-171.404	118.044	299.367	-1016.61	88.7795	45.1869	-721.9	47.1969	41.5477	-804.539	32.4856	100.197	-814.129	29.1006	-13.8319	-919.306	37.0025	-9.504519999999999	-846.146	122.577	41.9184	-759.655	31.2337	85.7976	-759.739	32.2476	-9.50071	-0	0	0	-767.318	998.076	100.965	-200	0	0	-0	0	200	-0	200	0	
